<svg version="1.1" xmlns="http://www.w3.org/2000/svg" viewBox="0 0 505 574.7999114990234" width="505" height="574.7999114990234">
  <!-- svg-source:excalidraw -->
  
  <defs>
    <style class="style-fonts">
      @font-face {
        font-family: "Virgil";
        src: url("https://unpkg.com/revedraw@1.0.0-alpha.10/dist/excalidraw-assets/Virgil.woff2");
      }
      @font-face {
        font-family: "Cascadia";
        src: url("https://unpkg.com/revedraw@1.0.0-alpha.10/dist/excalidraw-assets/Cascadia.woff2");
      }
    </style>
    
  </defs>
  <rect x="0" y="0" width="505" height="574.7999114990234" fill="#ffffff"></rect><g stroke-opacity="0.7" fill-opacity="0.7" stroke-linecap="round" transform="translate(183.20004272460938 10) rotate(0 80 39)"><path d="M101.29 1.59 C112.83 2.51, 125.59 5.88, 134.77 9.93 C143.95 13.99, 152.44 20.07, 156.36 25.93 C160.28 31.78, 160.31 38.95, 158.27 45.05 C156.22 51.16, 151.26 57.71, 144.08 62.57 C136.91 67.43, 126.17 71.5, 115.24 74.22 C104.31 76.94, 90.93 79.1, 78.49 78.9 C66.06 78.71, 51.58 76.1, 40.62 73.05 C29.66 69.99, 19.41 65.68, 12.75 60.57 C6.08 55.45, 1.84 48.56, 0.61 42.37 C-0.62 36.18, 0.61 28.88, 5.37 23.42 C10.13 17.95, 19.46 13.41, 29.19 9.57 C38.93 5.73, 50.74 1.49, 63.78 0.36 C76.83 -0.77, 99.41 2.2, 107.45 2.8 C115.49 3.39, 112.46 3.51, 112.04 3.95 M42.04 5.39 C51.86 2.13, 68.09 0.94, 80.32 0.71 C92.54 0.49, 104.49 1.52, 115.38 4.05 C126.27 6.58, 138.25 10.77, 145.64 15.9 C153.04 21.02, 158.08 28.72, 159.75 34.8 C161.43 40.89, 160.29 47.1, 155.7 52.43 C151.1 57.77, 141.46 62.61, 132.18 66.82 C122.9 71.04, 111.61 76.24, 100.02 77.75 C88.42 79.26, 74.47 77.57, 62.6 75.89 C50.73 74.22, 38.47 71.72, 28.79 67.7 C19.11 63.68, 9.38 57.42, 4.51 51.75 C-0.35 46.08, -2.03 39.51, -0.41 33.68 C1.22 27.85, 7.27 21.66, 14.24 16.76 C21.21 11.87, 36.65 6.37, 41.41 4.31 C46.16 2.25, 41.99 3.96, 42.76 4.4" stroke="none" stroke-width="0" fill="#a5d8ff"></path><path d="M64.93 1.4 C76.13 -0.38, 90.71 -0.87, 102.7 0.73 C114.7 2.32, 128.03 6.68, 136.92 10.99 C145.82 15.3, 152.56 20.76, 156.06 26.56 C159.57 32.36, 160.12 39.61, 157.97 45.78 C155.82 51.94, 150.61 58.84, 143.15 63.56 C135.69 68.27, 124.35 71.76, 113.19 74.09 C102.03 76.41, 88.48 77.82, 76.18 77.52 C63.89 77.22, 50.17 75.36, 39.42 72.28 C28.67 69.21, 18.33 64.07, 11.67 59.07 C5.02 54.06, 0.43 48.27, -0.5 42.26 C-1.43 36.25, 0.86 28.71, 6.08 23.02 C11.3 17.33, 19.67 11.93, 30.82 8.11 C41.97 4.28, 64.45 1.35, 72.96 0.05 C81.47 -1.25, 81.59 -0.29, 81.85 0.3 M62.34 1.23 C73.51 -0.44, 87.82 1.16, 99.46 2.56 C111.1 3.96, 123.03 5.65, 132.19 9.63 C141.35 13.62, 150.01 20.59, 154.42 26.48 C158.83 32.38, 160.09 39.23, 158.63 45.01 C157.16 50.79, 152.32 56.46, 145.62 61.17 C138.91 65.88, 129.16 70.58, 118.42 73.28 C107.68 75.99, 93.7 77.23, 81.17 77.38 C68.65 77.54, 54.46 76.97, 43.27 74.2 C32.07 71.42, 21.17 66.03, 14.01 60.76 C6.85 55.49, 1.84 48.65, 0.29 42.59 C-1.26 36.52, 0.18 29.88, 4.72 24.35 C9.26 18.81, 18.24 13.09, 27.52 9.37 C36.8 5.65, 54.76 3.24, 60.42 2.02 C66.08 0.79, 60.92 1.57, 61.49 2.02" stroke="#1e1e1e" stroke-width="1" fill="none"></path></g><g transform="translate(255.427505478709 26.42283553372465) rotate(0 7.7039947509765625 22.5)"><text x="7.7039947509765625" y="0" font-family="HanziPen SC, HanziPen Remote, Virgil, KaiTi, Segoe UI Emoji" font-size="36px" fill="#1e1e1e" text-anchor="middle" style="white-space: pre;" direction="ltr" dominant-baseline="text-before-edge">S</text></g><g stroke-linecap="round"><g transform="translate(233.60006713867188 87.60000610351562) rotate(0 -29.482796280677405 40.58067270360421)"><path d="M0.02 0.49 C-9.74 14.26, -48.28 67.93, -57.89 81.45 M-1.42 -0.29 C-11.43 13.23, -49.49 66.33, -58.99 79.68" stroke="#1e1e1e" stroke-width="1" fill="none"></path></g><g transform="translate(233.60006713867188 87.60000610351562) rotate(0 -29.482796280677405 40.58067270360421)"><path d="M-57.62 78.61 L-56.99 64.73 L-46.95 71.59 L-57.34 79.83" stroke="none" stroke-width="0" fill="#1e1e1e" fill-rule="evenodd"></path><path d="M-58.37 79.31 C-57.04 74.32, -55.79 68.26, -57.1 64.88 M-59.47 79.85 C-57.73 74.4, -57.14 70.58, -55.85 64.58 M-55.22 64.82 C-53.85 67.35, -49.74 68.29, -45.02 71.87 M-56.23 64.71 C-53.92 67.01, -50.94 68.62, -45.59 71.71 M-44.63 73.45 C-51.3 73.77, -54.88 76.27, -59.35 80.3 M-45.22 71.82 C-50.61 75.2, -54.43 77.08, -59.67 78.99 M-58.99 79.68 C-58.99 79.68, -58.99 79.68, -58.99 79.68 M-58.99 79.68 C-58.99 79.68, -58.99 79.68, -58.99 79.68" stroke="#1e1e1e" stroke-width="1" fill="none"></path></g></g><mask></mask><g stroke-linecap="round"><g transform="translate(293.6000671386719 85.19998168945312) rotate(0 25.274237236380543 37.41340650214815)"><path d="M-0.48 0.27 C7.86 12.68, 42.41 61.95, 51.03 74.37 M1.47 -0.64 C9.62 11.91, 42.17 62.71, 50.41 75.47" stroke="#1e1e1e" stroke-width="1" fill="none"></path></g><g transform="translate(293.6000671386719 85.19998168945312) rotate(0 25.274237236380543 37.41340650214815)"><path d="M51.14 76.65 L35.95 67.57 L47.73 60.99 L48.96 77.26" stroke="none" stroke-width="0" fill="#1e1e1e" fill-rule="evenodd"></path><path d="M50.74 76.26 C44.56 73.45, 40.26 68.58, 37.27 67.7 M50.72 75.66 C46.64 73.41, 42.1 70.8, 38.31 67.99 M36.86 67.05 C41.01 64.59, 46.45 62.83, 49.12 60.55 M38.02 67.89 C41.69 64.21, 45.59 62.28, 48.04 60.44 M47.91 59.82 C49.44 65.17, 49.46 72.42, 50.92 74.97 M48.67 60.77 C48.55 64.34, 49.06 69.29, 50.01 75.19 M50.41 75.47 C50.41 75.47, 50.41 75.47, 50.41 75.47 M50.41 75.47 C50.41 75.47, 50.41 75.47, 50.41 75.47" stroke="#1e1e1e" stroke-width="1" fill="none"></path></g></g><mask></mask><g stroke-linecap="round" transform="translate(98.40005493164062 172.40000915527344) rotate(0 61.600006103515625 39)"><path d="M45.25 0.71 C54.29 -1.35, 67.95 0.61, 77.89 2.28 C87.83 3.96, 97.58 6.3, 104.9 10.75 C112.21 15.2, 118.98 22.52, 121.77 29 C124.56 35.47, 124.58 43.38, 121.62 49.62 C118.66 55.86, 111.49 62, 104.01 66.43 C96.54 70.86, 86.68 74.58, 76.75 76.18 C66.82 77.78, 54.18 77.64, 44.41 76.04 C34.64 74.43, 25.36 71.24, 18.15 66.55 C10.93 61.86, 3.76 54.1, 1.12 47.91 C-1.52 41.73, -0.69 35.66, 2.3 29.45 C5.29 23.23, 10.53 15.37, 19.06 10.63 C27.59 5.89, 46.67 2.64, 53.48 1.01 C60.3 -0.61, 59.93 0.38, 59.96 0.87 M33.51 5.78 C41.62 2.04, 52.21 -1.16, 62.32 -1.19 C72.43 -1.22, 85.29 2.19, 94.17 5.6 C103.05 9.02, 110.63 13.58, 115.59 19.3 C120.56 25.03, 124.16 33.14, 123.97 39.96 C123.78 46.77, 120.13 54.81, 114.44 60.19 C108.76 65.57, 98.86 69.27, 89.86 72.23 C80.87 75.19, 70.34 78.08, 60.48 77.95 C50.62 77.82, 39.75 74.94, 30.7 71.46 C21.65 67.99, 11.13 62.91, 6.19 57.1 C1.26 51.3, 0.5 42.84, 1.1 36.63 C1.71 30.42, 4.87 25.15, 9.84 19.82 C14.8 14.49, 27.28 7.13, 30.89 4.67 C34.5 2.21, 30.97 4.71, 31.48 5.05" stroke="none" stroke-width="0" fill="#a5d8ff"></path><path d="M33.25 4.25 C41.65 0.96, 54.36 0.6, 64.51 0.93 C74.65 1.26, 85.39 3.08, 94.12 6.24 C102.86 9.39, 112.1 14.18, 116.91 19.85 C121.71 25.52, 123.61 33.56, 122.95 40.26 C122.29 46.97, 118.36 54.52, 112.94 60.09 C107.52 65.66, 99.44 70.56, 90.44 73.68 C81.44 76.81, 69.01 79.12, 58.93 78.84 C48.86 78.56, 38.69 75.66, 29.97 71.98 C21.25 68.31, 11.77 62.45, 6.63 56.78 C1.48 51.1, -1.28 44.33, -0.9 37.93 C-0.53 31.54, 2.89 24.19, 8.87 18.42 C14.86 12.65, 30.01 5.89, 35.01 3.32 C40.02 0.76, 38.35 2.47, 38.9 3.03 M77.05 1.2 C87 1.92, 98.9 6.02, 106.13 10.37 C113.36 14.71, 117.81 20.87, 120.44 27.29 C123.06 33.71, 124.21 42.37, 121.87 48.88 C119.52 55.39, 113.96 61.95, 106.37 66.36 C98.77 70.77, 86.41 73.61, 76.29 75.33 C66.17 77.04, 55.45 77.9, 45.65 76.64 C35.86 75.39, 24.62 72.48, 17.54 67.8 C10.45 63.11, 5.7 55.04, 3.16 48.53 C0.61 42.01, -0.11 34.84, 2.25 28.72 C4.62 22.6, 10.2 16.27, 17.33 11.8 C24.45 7.32, 34.97 3.49, 45 1.88 C55.03 0.28, 72.16 2.23, 77.51 2.17 C82.86 2.11, 77.29 0.93, 77.09 1.55" stroke="#1e1e1e" stroke-width="1" fill="none"></path></g><g transform="translate(140.46628870281745 188.8228446889981) rotate(0 19.475990295410156 22.5)"><text x="19.475990295410156" y="0" font-family="HanziPen SC, HanziPen Remote, Virgil, KaiTi, Segoe UI Emoji" font-size="36px" fill="#1e1e1e" text-anchor="middle" style="white-space: pre;" direction="ltr" dominant-baseline="text-before-edge">NP</text></g><g stroke-linecap="round" transform="translate(282.800048828125 171.00001525878906) rotate(0 61.600006103515625 39)"><path d="M79.25 1.22 C89.09 2.7, 100.31 7.9, 107.2 12.77 C114.09 17.65, 118.37 24.25, 120.61 30.47 C122.84 36.68, 123.57 43.75, 120.6 50.07 C117.64 56.39, 110.32 63.99, 102.81 68.39 C95.29 72.8, 85.18 75.11, 75.49 76.5 C65.79 77.88, 54.52 78.62, 44.64 76.7 C34.75 74.78, 23.3 69.64, 16.18 64.96 C9.06 60.29, 4.31 54.9, 1.94 48.65 C-0.44 42.4, -1 33.92, 1.94 27.47 C4.89 21.02, 11.93 14.24, 19.61 9.97 C27.29 5.7, 37.48 2.98, 48.03 1.84 C58.58 0.7, 76.78 2.88, 82.91 3.15 C89.03 3.41, 85.09 2.88, 84.8 3.42 M62.44 -1.49 C72 -2.51, 81.85 -0.02, 90.59 3.64 C99.32 7.3, 109.5 14.5, 114.83 20.49 C120.17 26.48, 122.29 33.06, 122.57 39.6 C122.86 46.14, 121.3 54.39, 116.55 59.73 C111.8 65.07, 103.33 68.61, 94.1 71.64 C84.88 74.66, 71.8 77.61, 61.2 77.86 C50.6 78.11, 39.08 76.09, 30.49 73.13 C21.9 70.17, 14.92 65.55, 9.66 60.1 C4.4 54.64, -0.62 47.08, -1.07 40.39 C-1.53 33.7, 1.45 25.84, 6.95 19.94 C12.44 14.04, 22.78 8.13, 31.9 4.97 C41.01 1.81, 56.61 1.51, 61.64 0.97 C66.68 0.43, 62.07 1.14, 62.12 1.72" stroke="none" stroke-width="0" fill="#a5d8ff"></path><path d="M90.35 4.46 C99.63 6.88, 108.63 12.32, 114.24 17.87 C119.84 23.42, 123.56 31.23, 124 37.78 C124.43 44.33, 121.82 51.63, 116.83 57.18 C111.83 62.73, 102.71 67.66, 94.03 71.11 C85.36 74.55, 74.98 77.41, 64.77 77.84 C54.56 78.27, 41.83 76.79, 32.77 73.69 C23.72 70.58, 15.76 64.72, 10.42 59.22 C5.08 53.72, 1.48 47.09, 0.73 40.68 C-0.01 34.28, 1.23 26.39, 5.96 20.78 C10.69 15.18, 20.32 10.49, 29.11 7.06 C37.89 3.63, 46.56 -0.2, 58.67 0.22 C70.78 0.64, 93.2 6.87, 101.76 9.56 C110.32 12.25, 110.87 16.11, 110.05 16.37 M79.78 0.51 C89.43 1.72, 99.66 7.73, 106.76 12.72 C113.85 17.71, 119.9 24.32, 122.33 30.43 C124.77 36.55, 124.54 43.21, 121.38 49.42 C118.22 55.63, 111.12 62.88, 103.37 67.71 C95.62 72.55, 84.61 76.82, 74.91 78.43 C65.21 80.03, 54.74 79.25, 45.18 77.36 C35.62 75.47, 24.76 71.93, 17.53 67.07 C10.31 62.2, 4.23 54.68, 1.83 48.17 C-0.57 41.65, 0.06 34.24, 3.11 27.97 C6.17 21.7, 12.65 14.94, 20.16 10.56 C27.67 6.19, 38.27 3.14, 48.2 1.73 C58.12 0.33, 74.63 1.91, 79.71 2.12 C84.78 2.33, 78.83 2.43, 78.67 2.99" stroke="#1e1e1e" stroke-width="1" fill="none"></path></g><g transform="translate(324.3442794254737 187.4228507925137) rotate(0 19.99799346923828 22.5)"><text x="19.99799346923828" y="0" font-family="HanziPen SC, HanziPen Remote, Virgil, KaiTi, Segoe UI Emoji" font-size="36px" fill="#1e1e1e" text-anchor="middle" style="white-space: pre;" direction="ltr" dominant-baseline="text-before-edge">VP</text></g><g stroke-linecap="round"><g transform="translate(128.4434837509164 248.22609054953028) rotate(0 -19.743798028501516 36.24408596648891)"><path d="M0.25 0.52 C-6.26 12.58, -32.39 60.75, -38.8 72.74 M-1.08 -0.25 C-7.77 11.41, -33.46 58.5, -39.74 70.85" stroke="#1e1e1e" stroke-width="1" fill="none"></path></g><g transform="translate(128.4434837509164 248.22609054953028) rotate(0 -19.743798028501516 36.24408596648891)"><path d="M-40.66 70.68 L-37.72 55.59 L-29.38 61.09 L-40.85 71.58" stroke="none" stroke-width="0" fill="#1e1e1e" fill-rule="evenodd"></path><path d="M-39.09 70.89 C-38.98 66.75, -39.09 61.64, -39.46 56.43 M-40.2 71.29 C-40.02 64.65, -39.3 59.53, -38.45 56.23 M-39.23 54.65 C-35.45 56.84, -34.99 59.35, -27.31 61.15 M-39.41 55.71 C-36.31 56.75, -33.56 58.99, -27.73 62.29 M-27.24 61.78 C-30.62 64.79, -31.51 64.14, -41.16 69.41 M-27.33 62.5 C-30.64 65.19, -35.56 66.9, -39.8 70.5 M-39.74 70.85 C-39.74 70.85, -39.74 70.85, -39.74 70.85 M-39.74 70.85 C-39.74 70.85, -39.74 70.85, -39.74 70.85" stroke="#1e1e1e" stroke-width="1" fill="none"></path></g></g><mask></mask><g stroke-linecap="round"><g transform="translate(185.33566641806345 247.97759855312574) rotate(0 17.42317796280892 37.0059550640911)"><path d="M0.95 1.08 C6.47 13.29, 27.33 61.48, 32.6 73.41 M-0.02 0.6 C5.94 12.46, 29.02 59.51, 34.86 71.75" stroke="#1e1e1e" stroke-width="1" fill="none"></path></g><g transform="translate(185.33566641806345 247.97759855312574) rotate(0 17.42317796280892 37.0059550640911)"><path d="M35.31 72.06 L24.64 63.79 L33.53 57.71 L34.49 72.19" stroke="none" stroke-width="0" fill="#1e1e1e" fill-rule="evenodd"></path><path d="M36.21 70.68 C33.01 68.37, 29.16 68.55, 22.83 62.78 M35.22 72.03 C30.06 68.2, 25.87 65.01, 22.71 62.59 M24.02 62.11 C25.53 60.24, 29.13 59.57, 35.28 56.87 M23.23 61.75 C27.97 60.37, 31.21 58.46, 34.88 56.6 M33.79 57.76 C34.97 62.64, 33.46 68.35, 35.04 72.97 M35.23 56.34 C35.28 60.13, 34.82 63.47, 34.83 71 M34.86 71.75 C34.86 71.75, 34.86 71.75, 34.86 71.75 M34.86 71.75 C34.86 71.75, 34.86 71.75, 34.86 71.75" stroke="#1e1e1e" stroke-width="1" fill="none"></path></g></g><mask></mask><g stroke-linecap="round" transform="translate(14.00006103515625 325.40000915527344) rotate(0 61.600006103515625 39)"><path d="M67.95 0.69 C77.71 0.71, 88.87 4.06, 97.06 7.71 C105.26 11.36, 112.69 16.67, 117.13 22.6 C121.56 28.53, 124.58 36.89, 123.68 43.3 C122.78 49.7, 117.95 55.66, 111.73 61.02 C105.51 66.39, 95.62 72.67, 86.36 75.5 C77.11 78.33, 66.28 78.91, 56.19 78.01 C46.09 77.11, 34.2 73.85, 25.79 70.11 C17.39 66.37, 9.93 61.32, 5.75 55.57 C1.57 49.83, -0.36 42.29, 0.73 35.64 C1.82 28.99, 6.28 21.03, 12.29 15.65 C18.29 10.26, 27 6.04, 36.76 3.34 C46.53 0.64, 64.99 -0.26, 70.88 -0.53 C76.77 -0.81, 72.41 0.76, 72.11 1.68 M50.95 0.67 C60.64 -1.06, 73.09 0.8, 82.41 2.97 C91.73 5.14, 100.26 8.9, 106.87 13.69 C113.49 18.48, 119.77 25.57, 122.1 31.72 C124.43 37.86, 123.96 44.34, 120.86 50.57 C117.77 56.81, 111.24 64.5, 103.54 69.15 C95.83 73.8, 85.04 77.45, 74.63 78.49 C64.22 79.53, 50.88 77.91, 41.1 75.4 C31.31 72.89, 22.7 68.13, 15.93 63.43 C9.16 58.73, 2.61 53.45, 0.5 47.2 C-1.61 40.95, -0.05 32.04, 3.26 25.94 C6.58 19.83, 12.52 14.61, 20.4 10.56 C28.29 6.5, 45.76 2.88, 50.56 1.6 C55.36 0.32, 48.96 2.62, 49.19 2.88" stroke="none" stroke-width="0" fill="#a5d8ff"></path><path d="M68.05 0.07 C77.84 0.24, 90.36 4.49, 98.63 8.55 C106.9 12.62, 113.61 18.59, 117.66 24.46 C121.71 30.33, 124 37.46, 122.93 43.77 C121.85 50.07, 117.55 57.11, 111.21 62.31 C104.87 67.5, 94.21 72.21, 84.89 74.93 C75.56 77.65, 65.23 79.26, 55.28 78.62 C45.32 77.98, 33.58 75.07, 25.14 71.11 C16.7 67.15, 8.91 61.01, 4.63 54.88 C0.35 48.75, -1.71 40.74, -0.54 34.33 C0.63 27.92, 5.31 21.65, 11.67 16.42 C18.03 11.2, 27.78 5.51, 37.62 2.98 C47.46 0.44, 64.88 1.46, 70.72 1.22 C76.55 0.98, 72.68 0.89, 72.62 1.54 M37.74 3.36 C46.57 0.43, 60.02 0.55, 70.02 1.41 C80.02 2.27, 89.74 4.75, 97.73 8.52 C105.72 12.28, 113.77 18.14, 117.97 24 C122.17 29.87, 124.27 37.46, 122.93 43.71 C121.58 49.96, 115.85 56.45, 109.9 61.53 C103.95 66.61, 96.37 71.61, 87.24 74.19 C78.11 76.77, 65.6 77.52, 55.12 77.02 C44.65 76.52, 32.76 74.8, 24.39 71.17 C16.03 67.54, 8.97 61.42, 4.91 55.23 C0.85 49.04, -0.96 40.76, 0.03 34.04 C1.02 27.33, 4.45 20, 10.86 14.95 C17.27 9.89, 33.9 5.51, 38.51 3.71 C43.13 1.92, 38.29 3.5, 38.54 4.16" stroke="#1e1e1e" stroke-width="1" fill="none"></path></g><g transform="translate(51.20629419598151 341.8228446889981) rotate(0 24.33599090576172 22.5)"><text x="24.33599090576172" y="0" font-family="HanziPen SC, HanziPen Remote, Virgil, KaiTi, Segoe UI Emoji" font-size="36px" fill="#1e1e1e" text-anchor="middle" style="white-space: pre;" direction="ltr" dominant-baseline="text-before-edge">Det</text></g><g stroke-linecap="round" transform="translate(162.40008544921875 325.4000701904297) rotate(0 61.600006103515625 39)"><path d="M83.38 3.12 C92.61 4.8, 101.09 9.4, 107.72 14.2 C114.34 19.01, 121.33 25.61, 123.15 31.94 C124.97 38.27, 122.43 45.96, 118.64 52.17 C114.85 58.38, 108.17 65.06, 100.4 69.18 C92.63 73.31, 81.86 75.8, 72.01 76.91 C62.16 78.03, 50.88 78.11, 41.31 75.88 C31.75 73.66, 21.39 68.55, 14.62 63.57 C7.85 58.59, 2.62 52.14, 0.69 46.01 C-1.24 39.88, -0.39 32.88, 3.05 26.77 C6.49 20.65, 13.22 13.55, 21.32 9.33 C29.42 5.11, 40.3 2.39, 51.66 1.44 C63.01 0.49, 82.26 2.52, 89.45 3.63 C96.64 4.73, 95.33 7.38, 94.8 8.07 M33.1 5.63 C41.7 2.42, 55.1 0.58, 65.53 0.67 C75.95 0.76, 87.39 2.78, 95.67 6.17 C103.96 9.56, 110.72 15.29, 115.22 21.01 C119.73 26.73, 123.14 33.85, 122.71 40.49 C122.28 47.12, 118 55.07, 112.66 60.8 C107.32 66.52, 99.89 72.14, 90.67 74.82 C81.46 77.5, 67.93 77.16, 57.36 76.86 C46.78 76.56, 35.43 76.19, 27.2 73.01 C18.98 69.82, 12.32 63.6, 8 57.77 C3.67 51.95, 1.04 44.78, 1.26 38.05 C1.49 31.31, 3.8 23.06, 9.36 17.36 C14.93 11.65, 30.52 5.89, 34.66 3.84 C38.8 1.78, 33.87 4.4, 34.2 5.02" stroke="none" stroke-width="0" fill="#a5d8ff"></path><path d="M84.17 2.78 C93.62 4.42, 104.04 9.52, 110.3 14.6 C116.55 19.69, 120.3 26.77, 121.69 33.3 C123.08 39.83, 122.21 47.67, 118.63 53.77 C115.05 59.87, 108.27 65.9, 100.22 69.92 C92.17 73.94, 80.61 77.05, 70.33 77.88 C60.05 78.71, 47.89 77.27, 38.55 74.91 C29.22 72.55, 20.6 68.86, 14.32 63.72 C8.05 58.59, 2.66 50.43, 0.89 44.1 C-0.87 37.77, -0.09 31.64, 3.74 25.75 C7.58 19.86, 15.79 13.08, 23.92 8.78 C32.05 4.47, 42 0.73, 52.53 -0.06 C63.06 -0.86, 80.97 3.07, 87.1 4 C93.23 4.93, 89.7 5.11, 89.32 5.52 M72.09 -0.14 C81.91 0.27, 94.34 4.69, 102.49 9.01 C110.63 13.33, 117.85 19.42, 120.98 25.79 C124.12 32.17, 123.21 40.8, 121.28 47.26 C119.35 53.72, 115.87 59.64, 109.42 64.57 C102.97 69.49, 92.71 74.62, 82.59 76.81 C72.47 79, 58.94 79.05, 48.71 77.7 C38.47 76.36, 28.59 73.24, 21.18 68.74 C13.77 64.24, 7.35 56.76, 4.22 50.69 C1.1 44.62, 0.45 38.34, 2.44 32.33 C4.43 26.31, 9.74 19.73, 16.16 14.6 C22.57 9.47, 31.26 4.08, 40.92 1.55 C50.57 -0.98, 68.82 -0.66, 74.09 -0.58 C79.37 -0.49, 72.85 1.29, 72.55 2.06" stroke="#1e1e1e" stroke-width="1" fill="none"></path></g><g transform="translate(189.616328375669 341.82290572415434) rotate(0 34.32598114013672 22.5)"><text x="34.32598114013672" y="0" font-family="HanziPen SC, HanziPen Remote, Virgil, KaiTi, Segoe UI Emoji" font-size="36px" fill="#1e1e1e" text-anchor="middle" style="white-space: pre;" direction="ltr" dominant-baseline="text-before-edge">Noun</text></g><g stroke-linecap="round"><g transform="translate(355.2000427246094 254.00001525878906) rotate(0 22.07119830467275 36.53487364619505)"><path d="M0.83 0.68 C8.29 12.74, 36.85 61.38, 44.34 73.08 M-0.19 -0.01 C7.11 11.68, 35.53 59.6, 43.14 71.53" stroke="#1e1e1e" stroke-width="1" fill="none"></path></g><g transform="translate(355.2000427246094 254.00001525878906) rotate(0 22.07119830467275 36.53487364619505)"><path d="M44 73.07 L29.32 63.08 L42.45 55.84 L43.94 72.98" stroke="none" stroke-width="0" fill="#1e1e1e" fill-rule="evenodd"></path><path d="M43.99 70.95 C41.15 70.64, 35.07 67.79, 32.02 63 M43.43 71.17 C40.18 70.13, 38.07 68.02, 30.19 63.04 M29.96 63.41 C35.24 62.13, 37.13 58.18, 40.3 57.39 M30.06 63.34 C32.92 62.36, 36.06 60.37, 41.54 56.52 M40.66 56.22 C42.11 61.12, 43.06 62.08, 42.07 70.98 M42.03 57.28 C41.87 62.39, 43.28 68.23, 42.99 71.62 M43.14 71.53 C43.14 71.53, 43.14 71.53, 43.14 71.53 M43.14 71.53 C43.14 71.53, 43.14 71.53, 43.14 71.53" stroke="#1e1e1e" stroke-width="1" fill="none"></path></g></g><mask></mask><g stroke-linecap="round" transform="translate(348.60009765625 327.6000213623047) rotate(0 61.600006103515625 39)"><path d="M65.92 -0.28 C75.63 -0.34, 88.39 2.68, 96.94 6.33 C105.5 9.98, 112.79 15.71, 117.25 21.62 C121.72 27.54, 124.4 35.07, 123.71 41.83 C123.02 48.58, 119.01 56.71, 113.12 62.16 C107.23 67.6, 97.65 72.02, 88.38 74.48 C79.1 76.94, 67.62 77.49, 57.47 76.93 C47.32 76.37, 36.04 74.51, 27.48 71.12 C18.91 67.73, 10.47 62.34, 6.07 56.6 C1.67 50.87, 0.3 43.2, 1.09 36.69 C1.89 30.19, 5.12 23.16, 10.84 17.57 C16.56 11.97, 25.71 6.06, 35.4 3.11 C45.1 0.17, 63.28 0.39, 69.01 -0.08 C74.74 -0.55, 70.07 -0.38, 69.8 0.27 M46.57 2.24 C55.94 0.4, 70.47 0.42, 80.26 1.97 C90.05 3.53, 98.3 6.84, 105.29 11.59 C112.28 16.34, 119.74 24.14, 122.19 30.48 C124.64 36.82, 122.91 43.45, 119.98 49.63 C117.04 55.81, 112.04 63.11, 104.58 67.55 C97.13 72, 85.23 74.67, 75.22 76.31 C65.21 77.96, 54.41 78.95, 44.55 77.43 C34.69 75.9, 22.95 72.04, 16.05 67.16 C9.14 62.29, 5.21 54.64, 3.11 48.16 C1.01 41.68, 0.74 34.64, 3.45 28.28 C6.17 21.91, 12.26 14.6, 19.39 9.96 C26.53 5.32, 41.43 1.86, 46.26 0.42 C51.1 -1.02, 47.82 0.55, 48.4 1.32" stroke="none" stroke-width="0" fill="#a5d8ff"></path><path d="M90.97 4.51 C99.78 6.82, 107.75 12.72, 113.07 18.19 C118.4 23.66, 122.5 30.74, 122.92 37.34 C123.33 43.93, 120.22 51.83, 115.56 57.74 C110.89 63.66, 103.67 69.58, 94.9 72.83 C86.14 76.09, 73.45 77.03, 62.96 77.27 C52.48 77.51, 40.82 77.1, 32.01 74.28 C23.21 71.46, 15.34 65.87, 10.14 60.33 C4.94 54.79, 1.35 47.68, 0.8 41.02 C0.25 34.36, 2.04 26.26, 6.86 20.36 C11.68 14.45, 20.93 8.98, 29.72 5.6 C38.51 2.23, 48.86 0.1, 59.59 0.13 C70.32 0.17, 87.99 4.48, 94.11 5.82 C100.23 7.16, 96.91 7.53, 96.31 8.16 M62.67 -1.46 C72.33 -1.91, 84.85 2.95, 93.54 6.56 C102.23 10.18, 109.82 14.64, 114.8 20.26 C119.78 25.88, 123.59 33.61, 123.44 40.27 C123.28 46.93, 119.3 54.64, 113.86 60.23 C108.43 65.82, 99.79 70.72, 90.82 73.79 C81.85 76.85, 70.18 79.07, 60.05 78.62 C49.91 78.16, 38.85 74.49, 30.01 71.05 C21.17 67.61, 12.12 63.48, 7.03 58 C1.93 52.51, -1.13 44.73, -0.55 38.16 C0.04 31.6, 5.07 24.31, 10.52 18.6 C15.97 12.9, 23.23 6.94, 32.16 3.94 C41.09 0.94, 58.73 1.04, 64.1 0.6 C69.47 0.16, 64.37 0.52, 64.37 1.3" stroke="#1e1e1e" stroke-width="1" fill="none"></path></g><g transform="translate(398.8203231266456 344.02285689602934) rotate(0 11.321998596191406 22.5)"><text x="11.321998596191406" y="0" font-family="HanziPen SC, HanziPen Remote, Virgil, KaiTi, Segoe UI Emoji" font-size="36px" fill="#1e1e1e" text-anchor="middle" style="white-space: pre;" direction="ltr" dominant-baseline="text-before-edge">V</text></g><g stroke-linecap="round"><g transform="translate(71.20006713313228 406.99892910465735) rotate(0 -0.8278116848146055 36.15357274454817)"><path d="M0.14 0.78 C-0.05 12.89, -1.93 60.43, -1.96 72.16 M-1.25 0.15 C-0.99 11.97, 0.14 58.49, 0.3 70.53" stroke="#1e1e1e" stroke-width="1" fill="none"></path></g><g transform="translate(71.20006713313228 406.99892910465735) rotate(0 -0.8278116848146055 36.15357274454817)"><path d="M-1.69 71.25 L-7.28 56.68 L8.12 54.91 L-0.57 70.65" stroke="none" stroke-width="0" fill="#1e1e1e" fill-rule="evenodd"></path><path d="M1.29 69.47 C0.02 68.77, -2.82 65.31, -6.12 57.46 M0.89 70.25 C-0.54 67.29, -2.94 64.1, -5.82 56.99 M-5.9 56.75 C-2.49 58.29, 0.43 56.75, 7.14 56.4 M-5.72 57.66 C-2.38 57.25, 1.21 56.27, 6.44 56.68 M6.46 57.87 C3.13 62.66, 1.57 66.41, 1.47 71.89 M6.69 57.56 C5.3 59.39, 3.48 63.92, -0.34 70.67 M0.3 70.53 C0.3 70.53, 0.3 70.53, 0.3 70.53 M0.3 70.53 C0.3 70.53, 0.3 70.53, 0.3 70.53" stroke="#1e1e1e" stroke-width="1" fill="none"></path></g></g><mask></mask><g stroke-linecap="round" transform="translate(10 484.1999969482422) rotate(0 61.600006103515625 39)"><path d="M51.62 1 C61.14 -0.48, 74.31 0.56, 83.95 2.72 C93.59 4.89, 102.97 8.97, 109.47 14.01 C115.97 19.05, 121.51 26.53, 122.95 32.97 C124.39 39.42, 121.89 46.72, 118.09 52.67 C114.3 58.63, 107.93 64.66, 100.16 68.68 C92.39 72.7, 81.53 75.83, 71.48 76.78 C61.42 77.72, 49.38 76.61, 39.81 74.36 C30.24 72.11, 20.41 68.35, 14.04 63.27 C7.67 58.19, 3.21 50.35, 1.61 43.89 C0.02 37.44, 0.76 30.46, 4.46 24.54 C8.17 18.62, 14.94 12.48, 23.85 8.35 C32.77 4.23, 51.18 0.91, 57.96 -0.22 C64.73 -1.36, 64.54 0.93, 64.51 1.54 M56.69 1.39 C66.57 0.42, 80.04 0.51, 89.49 3.17 C98.94 5.82, 107.94 12.07, 113.4 17.33 C118.86 22.59, 121.56 28.38, 122.24 34.72 C122.92 41.06, 121.63 49.24, 117.5 55.38 C113.36 61.51, 106 67.81, 97.44 71.53 C88.88 75.24, 76.5 77.21, 66.14 77.65 C55.77 78.1, 44.56 76.86, 35.27 74.21 C25.98 71.56, 16.1 66.9, 10.41 61.74 C4.73 56.57, 2.1 49.71, 1.13 43.22 C0.17 36.72, 0.43 28.82, 4.62 22.77 C8.81 16.72, 17.63 10.74, 26.29 6.9 C34.96 3.05, 51.55 0.6, 56.61 -0.3 C61.67 -1.21, 56.78 0.85, 56.65 1.49" stroke="none" stroke-width="0" fill="#a5d8ff"></path><path d="M82.83 1.65 C92.51 3.35, 103.2 9.75, 109.67 14.92 C116.14 20.08, 120.11 26.31, 121.66 32.63 C123.2 38.95, 122.22 46.73, 118.96 52.86 C115.69 58.98, 110 65.29, 102.06 69.37 C94.11 73.45, 81.42 76.44, 71.29 77.34 C61.15 78.23, 50.71 77.09, 41.24 74.75 C31.78 72.41, 21.2 68.01, 14.49 63.29 C7.79 58.58, 2.75 52.84, 1.01 46.45 C-0.72 40.06, 0.4 31.09, 4.08 24.95 C7.75 18.82, 15.18 13.75, 23.06 9.66 C30.94 5.58, 40.08 1.18, 51.37 0.43 C62.66 -0.33, 83.31 4.06, 90.8 5.14 C98.28 6.22, 96.89 6.43, 96.28 6.9 M84.84 3.24 C93.85 4.96, 102.6 9.78, 108.62 14.84 C114.65 19.89, 119.38 27.27, 120.99 33.6 C122.6 39.93, 121.53 47.11, 118.28 52.84 C115.02 58.57, 109.47 63.85, 101.47 67.98 C93.48 72.12, 80.5 76.4, 70.32 77.63 C60.13 78.86, 49.71 77.98, 40.35 75.37 C30.99 72.75, 20.8 67.05, 14.16 61.95 C7.53 56.86, 2.24 51.01, 0.54 44.81 C-1.17 38.62, 0.03 30.68, 3.93 24.79 C7.84 18.89, 15.78 13.69, 23.96 9.43 C32.14 5.17, 43.01 0.13, 53.01 -0.79 C63.01 -1.7, 78.88 3.21, 83.96 3.95 C89.04 4.69, 83.87 3.05, 83.51 3.66" stroke="#1e1e1e" stroke-width="1" fill="none"></path></g><g transform="translate(44.41623224529792 500.62283248196684) rotate(0 27.125991821289062 22.5)"><text x="27.125991821289062" y="0" font-family="HanziPen SC, HanziPen Remote, Virgil, KaiTi, Segoe UI Emoji" font-size="36px" fill="#1e1e1e" text-anchor="middle" style="white-space: pre;" direction="ltr" dominant-baseline="text-before-edge">The</text></g><g stroke-linecap="round"><g transform="translate(227.20004272460938 403.00001525878906) rotate(0 1.4527593746435628 39.47384217683623)"><path d="M1.05 0.92 C1.47 13.77, 2.45 64.46, 2.77 77.24 M0.14 0.35 C0.34 13.37, 1.25 65.49, 1.57 78.59" stroke="#1e1e1e" stroke-width="1" fill="none"></path></g><g transform="translate(227.20004272460938 403.00001525878906) rotate(0 1.4527593746435628 39.47384217683623)"><path d="M-0.36 80.16 L-5.03 65.25 L7.36 66.57 L-0.28 79.96" stroke="none" stroke-width="0" fill="#1e1e1e" fill-rule="evenodd"></path><path d="M2.72 78 C-1 73.99, -2.61 68.79, -4.2 64.83 M1.89 78.41 C-1 74.03, -2.23 69.8, -4.48 64.54 M-5.07 66.31 C-1.39 65.19, 4.28 65.64, 7.46 64.73 M-5.46 64.83 C-1.71 65, 1.38 64.89, 8.17 65.47 M6.87 63.69 C6.43 68.06, 5.5 72.4, 1.22 78.37 M7.94 65.34 C6.32 68.42, 4.14 73.16, 1.58 78.54 M1.57 78.59 C1.57 78.59, 1.57 78.59, 1.57 78.59 M1.57 78.59 C1.57 78.59, 1.57 78.59, 1.57 78.59" stroke="#1e1e1e" stroke-width="1" fill="none"></path></g></g><mask></mask><g stroke-linecap="round" transform="translate(164.800048828125 485.59996032714844) rotate(0 61.600006103515625 39)"><path d="M53.43 -0.54 C63.15 -1.99, 75.98 0.18, 85.49 2.73 C95 5.29, 104.21 9.68, 110.48 14.78 C116.75 19.89, 121.86 26.83, 123.13 33.36 C124.41 39.88, 122.12 47.69, 118.14 53.94 C114.16 60.18, 107.4 66.76, 99.24 70.83 C91.09 74.9, 79.3 77.54, 69.21 78.37 C59.12 79.19, 48.17 78.25, 38.68 75.78 C29.2 73.3, 18.64 68.68, 12.32 63.52 C6 58.37, 1.96 51.33, 0.76 44.85 C-0.45 38.37, 1.17 30.81, 5.07 24.65 C8.97 18.48, 15.65 12.04, 24.13 7.88 C32.61 3.71, 50.09 0.86, 55.96 -0.32 C61.84 -1.5, 59.28 0.03, 59.38 0.82 M43.8 0.97 C52.59 -1.36, 64.21 -0.49, 73.96 1.23 C83.71 2.94, 94.38 7, 102.29 11.28 C110.21 15.57, 117.96 21.16, 121.44 26.94 C124.91 32.71, 125.36 39.33, 123.14 45.93 C120.93 52.53, 115.36 61.29, 108.17 66.53 C100.99 71.77, 89.8 75.61, 80.02 77.37 C70.25 79.12, 59.44 78.89, 49.52 77.07 C39.61 75.26, 28.41 70.65, 20.54 66.48 C12.66 62.31, 5.55 58.03, 2.29 52.04 C-0.98 46.06, -1.17 37.19, 0.96 30.58 C3.09 23.97, 7.91 17.11, 15.08 12.39 C22.26 7.67, 39.5 3.78, 44.01 2.24 C48.52 0.7, 42.24 2.58, 42.15 3.17" stroke="none" stroke-width="0" fill="#a5d8ff"></path><path d="M58.9 -0.59 C68.56 -1.67, 79.85 1.11, 88.9 4.03 C97.94 6.95, 107.49 11.33, 113.19 16.94 C118.89 22.55, 122.36 31.13, 123.09 37.67 C123.81 44.21, 122.03 50.46, 117.53 56.17 C113.02 61.88, 104.87 68.44, 96.04 71.93 C87.2 75.43, 74.87 76.88, 64.53 77.15 C54.19 77.42, 42.99 76.31, 34.01 73.55 C25.03 70.8, 16.35 66.05, 10.66 60.62 C4.97 55.2, 0.52 47.56, -0.14 41.03 C-0.79 34.49, 2.09 27.12, 6.71 21.41 C11.33 15.7, 17.71 10.21, 27.57 6.78 C37.43 3.35, 58.61 1.66, 65.88 0.82 C73.15 -0.02, 71.38 1.19, 71.17 1.71 M60.03 -1.37 C69.73 -2.03, 81.14 1.73, 90.02 5.08 C98.89 8.43, 107.61 13.47, 113.26 18.72 C118.92 23.97, 123.33 30.11, 123.93 36.57 C124.52 43.03, 121.85 51.59, 116.82 57.45 C111.79 63.31, 102.78 68.29, 93.73 71.73 C84.68 75.17, 72.78 77.88, 62.52 78.09 C52.26 78.31, 40.88 75.94, 32.17 73.01 C23.45 70.08, 15.56 65.97, 10.25 60.51 C4.94 55.05, 1.04 46.69, 0.29 40.25 C-0.45 33.81, 0.98 27.57, 5.76 21.87 C10.53 16.16, 20.05 9.44, 28.96 6.02 C37.87 2.59, 54.38 2, 59.24 1.3 C64.1 0.6, 58.14 1.45, 58.1 1.82" stroke="#1e1e1e" stroke-width="1" fill="none"></path></g><g transform="translate(202.69028772625495 502.0227958608731) rotate(0 23.65198516845703 22.5)"><text x="23.65198516845703" y="0" font-family="HanziPen SC, HanziPen Remote, Virgil, KaiTi, Segoe UI Emoji" font-size="36px" fill="#1e1e1e" text-anchor="middle" style="white-space: pre;" direction="ltr" dominant-baseline="text-before-edge">Cat</text></g><g stroke-linecap="round"><g transform="translate(415.98491252281656 408.7165056520395) rotate(0 1.4507668250362258 35.989113032578814)"><path d="M-0.48 0.07 C-0.01 12.32, 2.86 60.82, 3.38 72.92 M1.47 -0.94 C1.74 11.06, 2.47 59.43, 2.49 71.38" stroke="#1e1e1e" stroke-width="1" fill="none"></path></g><g transform="translate(415.98491252281656 408.7165056520395) rotate(0 1.4507668250362258 35.989113032578814)"><path d="M3.69 72.06 L-2.97 59.15 L8.57 56.26 L4.24 73.16" stroke="none" stroke-width="0" fill="#1e1e1e" fill-rule="evenodd"></path><path d="M2.57 71.5 C1.69 65.89, -0.88 62.83, -2.89 57.15 M2.79 71.77 C0.1 66.2, -2.65 60.94, -3.84 57.85 M-3.31 57.63 C0.44 57.11, 2.43 58.17, 8.22 58.77 M-4.49 58.19 C1.46 57.45, 6.25 57.97, 8.67 57.8 M8.3 57.44 C6.61 60.02, 7.53 63.6, 1.65 71.91 M7.96 57.45 C7.44 60.23, 6.47 63.83, 2.61 71.86 M2.49 71.38 C2.49 71.38, 2.49 71.38, 2.49 71.38 M2.49 71.38 C2.49 71.38, 2.49 71.38, 2.49 71.38" stroke="#1e1e1e" stroke-width="1" fill="none"></path></g></g><mask></mask><g stroke-linecap="round" transform="translate(352 482.79991149902344) rotate(0 71.5 41)"><path d="M67.69 -0.1 C78 -0.88, 90.75 1.77, 100.76 4.63 C110.76 7.48, 120.95 12.1, 127.71 17.02 C134.46 21.93, 139.34 28.05, 141.27 34.1 C143.21 40.15, 142.57 47.13, 139.34 53.3 C136.12 59.47, 129.93 66.68, 121.92 71.11 C113.91 75.54, 102.06 78.32, 91.28 79.87 C80.5 81.43, 68.14 81.68, 57.24 80.42 C46.34 79.17, 34.41 76.12, 25.87 72.35 C17.33 68.57, 10.35 63.38, 5.99 57.79 C1.63 52.19, -0.9 45.05, -0.28 38.77 C0.33 32.49, 3.81 25.54, 9.69 20.11 C15.57 14.68, 24.88 9.61, 34.98 6.2 C45.07 2.79, 64 0.41, 70.28 -0.33 C76.55 -1.07, 72.73 1.02, 72.64 1.74 M96.94 2.83 C107.16 4.22, 117.41 8.31, 124.88 13.18 C132.35 18.06, 138.9 25.43, 141.77 32.06 C144.64 38.68, 145.19 46.63, 142.08 52.93 C138.98 59.23, 130.7 65.53, 123.13 69.84 C115.55 74.14, 107.06 76.75, 96.62 78.76 C86.17 80.77, 71.59 82.75, 60.46 81.9 C49.33 81.04, 38.58 77.45, 29.86 73.64 C21.15 69.82, 13.18 64.34, 8.18 59.01 C3.18 53.68, -0.27 48.09, -0.14 41.68 C-0.01 35.27, 3.54 26.31, 8.93 20.55 C14.32 14.79, 22.8 10.4, 32.2 7.13 C41.61 3.85, 54.43 1.43, 65.36 0.91 C76.3 0.38, 92.43 3.4, 97.82 3.98 C103.21 4.55, 98.32 3.73, 97.7 4.37" stroke="none" stroke-width="0" fill="#a5d8ff"></path><path d="M54.48 0.63 C64.3 -1.17, 77.76 0.62, 88.57 2.16 C99.38 3.7, 110.99 5.9, 119.36 9.86 C127.73 13.83, 134.94 19.97, 138.81 25.94 C142.68 31.91, 144.17 39.32, 142.56 45.68 C140.96 52.03, 135.51 58.92, 129.2 64.06 C122.89 69.21, 114.22 73.6, 104.7 76.54 C95.18 79.49, 83.15 81.51, 72.06 81.73 C60.97 81.95, 48.13 80.69, 38.18 77.86 C28.23 75.03, 18.59 70.18, 12.38 64.75 C6.17 59.33, 2.33 51.67, 0.9 45.32 C-0.53 38.97, -0.15 32.41, 3.81 26.64 C7.77 20.88, 15.84 15.01, 24.64 10.75 C33.44 6.49, 50.93 2.74, 56.59 1.11 C62.25 -0.52, 58.41 0.25, 58.61 0.97 M38.85 6.18 C47.77 2.9, 59.71 0.4, 70.48 0.28 C81.26 0.15, 93.51 2.45, 103.51 5.44 C113.52 8.42, 123.85 13.14, 130.5 18.17 C137.14 23.2, 142.22 29.22, 143.38 35.61 C144.55 42, 141.25 50.67, 137.48 56.52 C133.7 62.37, 128.78 66.56, 120.72 70.68 C112.66 74.8, 100.02 79.36, 89.13 81.25 C78.24 83.13, 65.92 83.34, 55.38 82 C44.85 80.66, 34.36 77.54, 25.9 73.2 C17.45 68.86, 8.94 62.3, 4.65 55.96 C0.37 49.62, -1.08 41.32, 0.17 35.17 C1.43 29.01, 6.05 23.82, 12.18 19.02 C18.31 14.21, 32.63 8.41, 36.95 6.34 C41.27 4.28, 37.45 6.07, 38.1 6.64" stroke="#1e1e1e" stroke-width="1" fill="none"></path></g><g transform="translate(381.78988760609934 501.308533470375) rotate(0 41.6519775390625 22.5)"><text x="41.6519775390625" y="0" font-family="HanziPen SC, HanziPen Remote, Virgil, KaiTi, Segoe UI Emoji" font-size="36px" fill="#1e1e1e" text-anchor="middle" style="white-space: pre;" direction="ltr" dominant-baseline="text-before-edge">Sleeps</text></g></svg>